<svg width="2129" height="116" viewBox="0 0 2129 116" fill="none" xmlns="http://www.w3.org/2000/svg">
<path d="M4 111.5L79.75 35.75C121.586 -6.08558 189.414 -6.08557 231.25 35.75V35.75C273.086 77.5856 340.914 77.5856 382.75 35.75V35.75C424.586 -6.08557 492.414 -6.08557 534.25 35.75V35.75C576.086 77.5856 643.914 77.5856 685.75 35.75V35.75C727.586 -6.08557 795.414 -6.08557 837.25 35.75V35.75C879.086 77.5856 946.914 77.5856 988.75 35.75V35.75C1030.59 -6.08557 1098.41 -6.08557 1140.25 35.75V35.75C1182.09 77.5856 1249.91 77.5856 1291.75 35.75V35.75C1333.59 -6.08557 1401.41 -6.08557 1443.25 35.75V35.75C1485.09 77.5856 1552.91 77.5856 1594.75 35.75V35.75C1636.59 -6.08557 1704.41 -6.08557 1746.25 35.75V35.75C1788.09 77.5856 1855.91 77.5856 1897.75 35.75V35.75C1939.59 -6.08557 2007.41 -6.08557 2049.25 35.75L2125 111.5" stroke="#F4511E" stroke-width="10" stroke-dasharray="30 30"/>
</svg>
