<svg width="1625" height="1064" viewBox="0 0 1625 1064" fill="none" xmlns="http://www.w3.org/2000/svg">
<path d="M812.25 5H195L7 237M812.25 5H1429.5L1617.5 237M812.25 5L409.625 237M812.25 5L1214.88 237M1617.5 237L812.25 1042.25M1617.5 237H1214.88M812.25 1042.25L7 237M812.25 1042.25L1214.88 237M812.25 1042.25L409.625 237M7 237H409.625M1214.88 237H812.25H409.625M1214.88 237H409.625" stroke="#F4511E" stroke-width="10"/>
<path d="M1431.5 964L1339.5 872L1247.5 964L1339.5 1056L1431.5 964Z" stroke="#F4511E" stroke-width="10"/>
<path d="M1498.5 907.5L1431.5 840.5L1498.5 773.5L1565.5 840.5L1498.5 907.5Z" stroke="#F4511E" stroke-width="10"/>
<path d="M1405 749L1339.5 683.5L1274 749L1339.5 814.5L1405 749Z" stroke="#F4511E" stroke-width="10"/>
</svg>
