<svg width="1920" height="4320" viewBox="0 0 1920 4320" fill="none" xmlns="http://www.w3.org/2000/svg">
<path d="M906.719 2216.79C908.554 2217.05 910.367 2217.45 912.159 2218C913.875 2218.85 915.537 2219.83 917.144 2220.95C918.61 2222.33 919.991 2223.84 921.286 2225.48C922.382 2227.34 923.364 2229.31 924.233 2231.38C924.852 2233.62 925.335 2235.95 925.681 2238.35C925.737 2240.88 925.639 2243.44 925.388 2246.05C924.817 2248.72 924.082 2251.4 923.183 2254.08C921.951 2256.75 920.55 2259.38 918.981 2261.99C917.078 2264.51 915.011 2266.96 912.779 2269.34C910.228 2271.56 907.525 2273.67 904.668 2275.68C901.522 2277.44 898.241 2279.07 894.826 2280.56C891.165 2281.74 887.395 2282.76 883.516 2283.6C879.448 2284.07 875.303 2284.35 871.08 2284.44C866.738 2284.11 862.354 2283.57 857.93 2282.81C853.463 2281.6 848.996 2280.17 844.529 2278.51C840.105 2276.38 835.723 2274.02 831.385 2271.43C827.178 2268.37 823.059 2265.09 819.028 2261.57C815.218 2257.6 811.54 2253.42 807.994 2249.02C804.756 2244.21 801.694 2239.2 798.806 2233.99C796.307 2228.42 794.023 2222.69 791.953 2216.79C790.346 2210.59 788.987 2204.26 787.875 2197.8C787.29 2191.13 786.979 2184.37 786.945 2177.53C787.483 2170.57 788.318 2163.57 789.448 2156.54C791.183 2149.49 793.225 2142.45 795.574 2135.44C798.541 2128.52 801.818 2121.68 805.403 2114.91C809.602 2108.35 814.101 2101.93 818.902 2095.64C824.289 2089.67 829.959 2083.89 835.912 2078.3C842.406 2073.14 849.155 2068.23 856.158 2063.56C863.637 2059.43 871.332 2055.6 879.245 2052.05C887.549 2049.14 896.023 2046.56 904.668 2044.32C913.603 2042.79 922.654 2041.63 931.822 2040.84C941.164 2040.81 950.563 2041.19 960.017 2041.96C969.52 2043.54 979.012 2045.54 988.496 2047.94C997.893 2051.17 1007.21 2054.82 1016.45 2058.88C1025.47 2063.77 1034.34 2069.06 1043.06 2074.76C1051.41 2081.25 1059.56 2088.13 1067.48 2095.39C1074.91 2103.39 1082.05 2111.74 1088.91 2120.44C1095.15 2129.81 1101.04 2139.48 1106.59 2149.45C1111.4 2159.99 1115.81 2170.78 1119.83 2181.81C1123.01 2193.29 1125.75 2204.94 1128.05 2216.79C1129.43 2228.93 1130.33 2241.18 1130.76 2253.54C1130.22 2266.04 1129.18 2278.57 1127.64 2291.14C1125.1 2303.68 1122.05 2316.17 1118.49 2328.6C1113.93 2340.84 1108.86 2352.93 1103.29 2364.89C1096.74 2376.48 1089.7 2387.84 1082.18 2398.97C1073.73 2409.56 1064.83 2419.85 1055.48 2429.82C1045.28 2439.09 1034.67 2447.98 1023.66 2456.47C1011.91 2464.11 999.813 2471.3 987.375 2478.02C974.321 2483.77 960.997 2488.99 947.402 2493.69C933.346 2497.31 919.102 2500.35 904.668 2502.83C889.945 2504.12 875.123 2504.82 860.202 2504.91C845.179 2503.77 830.152 2502.01 815.122 2499.63C800.185 2495.99 785.344 2491.72 770.6 2486.83C756.149 2480.69 741.894 2473.94 727.836 2466.57C714.271 2458.01 701.001 2448.86 688.027 2439.12C675.738 2428.27 663.838 2416.87 652.327 2404.94C641.684 2392 631.516 2378.58 621.824 2364.69C613.163 2349.93 605.054 2334.77 597.499 2319.22C591.116 2302.96 585.351 2286.4 580.202 2269.53C576.342 2252.15 573.15 2234.57 570.625 2216.79C569.473 2198.71 569.022 2180.53 569.272 2162.27C570.947 2143.93 573.339 2125.62 576.449 2107.34C580.998 2089.22 586.262 2071.24 592.243 2053.41C599.639 2035.99 607.73 2018.83 616.515 2001.93C626.656 1985.67 637.451 1969.79 648.901 1954.3C661.607 1939.67 674.909 1925.52 688.808 1911.87C703.829 1899.3 719.37 1887.31 735.431 1875.91C752.447 1865.78 769.891 1856.32 787.764 1847.53C806.393 1840.18 825.346 1833.57 844.622 1827.7C864.431 1823.39 884.446 1819.88 904.668 1817.17C925.179 1816.11 945.772 1815.88 966.445 1816.49C987.151 1818.78 1007.81 1821.93 1028.41 1825.93C1048.78 1831.63 1068.97 1838.17 1088.98 1845.55C1108.48 1854.59 1127.67 1864.45 1146.55 1875.12C1164.66 1887.36 1182.33 1900.37 1199.56 1914.14C1215.78 1929.36 1231.44 1945.27 1246.54 1961.87C1260.4 1979.76 1273.59 1998.24 1286.11 2017.32C1297.2 2037.48 1307.52 2058.13 1317.09 2079.26C1325.04 2101.24 1332.16 2123.58 1338.44 2146.28C1342.98 2169.56 1346.62 2193.06 1349.38 2216.79C1350.3 2240.81 1350.3 2264.9 1349.37 2289.07C1346.56 2313.24 1342.82 2337.32 1338.13 2361.33C1331.58 2385.03 1324.1 2408.49 1315.7 2431.72C1305.47 2454.33 1294.35 2476.56 1282.35 2498.4C1268.62 2519.33 1254.07 2539.72 1238.69 2559.59C1221.73 2578.25 1204.02 2596.25 1185.57 2613.59C1165.74 2629.46 1145.26 2644.55 1124.14 2658.86C1101.87 2671.48 1079.08 2683.21 1055.77 2694.05C1031.56 2703.02 1006.98 2711.02 982.026 2718.05C956.464 2723.05 930.678 2727.03 904.668 2729.97C878.368 2730.8 852.005 2730.57 825.579 2729.26C799.192 2725.8 772.908 2721.27 746.728 2715.66C720.921 2707.9 695.385 2699.09 670.119 2689.22C645.559 2677.27 621.434 2664.31 597.743 2650.34C575.079 2634.41 553.006 2617.55 531.524 2599.74C511.371 2580.15 491.952 2559.72 473.269 2538.46C456.189 2515.63 439.972 2492.08 424.619 2467.81C411.107 2442.25 398.569 2416.12 387.003 2389.41C377.476 2361.71 369.008 2333.59 361.599 2305.06C356.378 2275.88 352.277 2246.45 349.297 2216.79C348.599 2186.83 349.057 2156.81 350.669 2126.74C354.604 2096.74 359.699 2066.88 365.954 2037.15C374.512 2007.87 384.207 1978.92 395.038 1950.29C408.095 1922.49 422.235 1895.2 437.457 1868.41C454.77 1842.82 473.084 1817.91 492.398 1793.68C513.612 1770.98 535.718 1749.12 558.715 1728.1C583.368 1708.92 608.78 1690.73 634.95 1673.52C662.487 1658.41 690.627 1644.4 719.37 1631.51C749.15 1620.92 779.359 1611.54 809.999 1603.35C841.313 1597.64 872.869 1593.2 904.668 1590.03C936.756 1589.43 968.89 1590.13 1001.07 1592.14C1033.14 1596.75 1065.05 1602.68 1096.81 1609.9C1128.05 1619.71 1158.93 1630.8 1189.46 1643.16C1219.07 1658.01 1248.13 1674.08 1276.64 1691.35C1303.85 1710.96 1330.33 1731.68 1356.06 1753.52C1380.15 1777.48 1403.33 1802.42 1425.6 1828.36C1445.89 1856.13 1465.14 1884.75 1483.32 1914.2C1499.26 1945.16 1514.01 1976.78 1527.58 2009.07C1538.68 2042.49 1548.5 2076.38 1557.04 2110.74C1562.94 2145.83 1567.5 2181.18 1570.7 2216.79C1571.17 2252.69 1570.26 2288.63 1567.97 2324.61C1562.9 2360.43 1556.46 2396.07 1548.63 2431.52C1538.07 2466.38 1526.16 2500.82 1512.9 2534.84C1497.01 2567.83 1479.85 2600.19 1461.41 2631.92C1440.51 2662.18 1418.44 2691.61 1395.19 2720.2C1369.72 2746.94 1343.21 2772.66 1315.67 2797.35C1286.2 2819.84 1255.85 2841.13 1224.63 2861.25C1191.83 2878.85 1158.34 2895.13 1124.16 2910.08C1088.81 2922.28 1052.97 2933.05 1016.65 2942.4C979.582 2948.8 942.255 2953.71 904.668 2957.12C866.791 2957.48 828.887 2956.32 790.956 2953.61C753.206 2947.84 715.665 2940.53 678.334 2931.69C641.657 2919.82 605.425 2906.46 569.638 2891.61C534.97 2873.85 500.974 2854.68 467.65 2834.1C435.887 2810.82 405.011 2786.23 375.021 2760.36C347.004 2732.04 320.067 2702.58 294.211 2671.97C270.694 2639.25 248.428 2605.58 227.414 2570.94C209.052 2534.58 192.083 2497.47 176.508 2459.6C163.835 2420.45 152.665 2380.79 142.996 2340.6C136.413 2299.6 131.403 2258.33 127.968 2216.79C127.726 2174.94 129.092 2133.08 132.066 2091.2C138.261 2049.54 146.058 2008.13 155.458 1966.95C168.027 1926.52 182.152 1886.6 197.833 1847.17C216.551 1808.99 236.74 1771.57 258.399 1734.9C282.885 1699.97 308.717 1666.02 335.896 1633.06C365.617 1602.29 396.526 1572.72 428.622 1544.34C462.908 1518.55 498.191 1494.15 534.47 1471.13C572.528 1451.04 611.363 1432.49 650.976 1415.48C691.906 1401.66 733.373 1389.51 775.375 1379C818.195 1371.9 861.292 1366.52 904.668 1362.88C948.333 1362.75 992.008 1364.38 1035.69 1367.79C1079.12 1374.72 1122.29 1383.42 1165.2 1393.87C1207.31 1407.8 1248.89 1423.43 1289.94 1440.77C1329.66 1461.43 1368.59 1483.71 1406.73 1507.59C1443.04 1534.56 1478.32 1563 1512.57 1592.91C1544.52 1625.59 1575.21 1659.57 1604.65 1694.85C1631.39 1732.51 1656.68 1771.25 1680.52 1811.08C1701.31 1852.83 1720.5 1895.43 1738.08 1938.88C1752.32 1983.74 1764.84 2029.19 1775.64 2075.21C1782.91 2122.11 1788.37 2169.3 1792.03 2216.79C1792.05 2264.57 1790.23 2312.35 1786.57 2360.14C1779.25 2407.63 1770.1 2454.82 1759.13 2501.72C1744.55 2547.72 1728.21 2593.14 1710.11 2637.97C1688.56 2681.33 1665.34 2723.81 1640.47 2765.43C1612.39 2805.03 1582.8 2843.49 1551.69 2880.82C1517.72 2915.63 1482.41 2949.06 1445.76 2981.12C1406.66 3010.21 1366.44 3037.71 1325.11 3063.64C1281.79 3086.22 1237.6 3107.04 1192.56 3126.11C1146.05 3141.54 1098.96 3155.08 1051.27 3166.75C1002.7 3174.55 953.832 3180.39 904.668 3184.27C855.215 3184.16 805.769 3182.06 756.332 3177.96C707.219 3169.87 658.422 3159.78 609.939 3147.72C562.393 3131.73 515.466 3113.82 469.157 3094C424.38 3070.43 380.513 3045.05 337.556 3017.87C296.696 2987.22 257.016 2954.92 218.519 2920.97C182.637 2883.92 148.181 2845.43 115.153 2805.48C85.1988 2762.88 56.8845 2719.07 30.2094 2674.06C6.99706 2626.9 -14.402 2578.81 -33.9878 2529.79C-49.8049 2479.2 -63.6781 2427.98 -75.6072 2376.13C-83.5524 2323.33 -89.4697 2270.21 -93.3595 2216.79C-93.1472 2163.06 -90.8731 2109.36 -86.5373 2055.67C-78.0821 2002.35 -67.5821 1949.38 -55.0374 1896.76C-38.4586 1845.18 -19.9034 1794.27 0.628511 1744.05C25.0076 1695.5 51.2451 1647.95 79.341 1601.39C110.999 1557.12 144.35 1514.14 179.393 1472.44C217.622 1433.6 257.334 1396.31 298.528 1360.57C342.448 1328.18 387.602 1297.57 433.989 1268.74C482.569 1243.67 532.1 1220.58 582.582 1199.45C634.663 1182.41 687.386 1167.48 740.752 1154.65C795.077 1146.15 849.716 1139.84 904.668 1135.73C959.91 1136.07 1015.13 1138.64 1070.32 1143.43C1125.11 1152.69 1179.54 1164.16 1233.59 1177.84C1286.57 1195.89 1338.85 1216.07 1390.42 1238.38C1440.25 1264.86 1489.05 1293.33 1536.83 1323.82C1582.24 1358.15 1626.32 1394.31 1669.07 1432.29C1708.88 1473.71 1747.1 1516.72 1783.71 1561.33C1816.88 1608.88 1848.22 1657.75 1877.73 1707.95C1903.37 1760.51 1926.98 1814.09 1948.57 1868.68C1965.96 1925 1981.19 1981.99 1994.24 2039.68C2002.87 2098.38 2009.24 2157.42 2013.36 2216.79C2012.92 2276.45 2010.19 2336.08 2005.17 2395.67C1995.59 2454.82 1983.74 2513.57 1969.62 2571.91C1951.04 2629.07 1930.27 2685.46 1907.31 2741.09C1880.1 2794.82 1850.84 2847.44 1819.52 2898.94C1784.28 2947.88 1747.17 2995.38 1708.19 3041.44C1665.71 3084.32 1621.6 3125.46 1575.85 3164.88C1527.12 3200.58 1477.03 3234.29 1425.59 3266.03C1371.75 3293.58 1316.87 3318.95 1260.95 3342.14C1203.29 3360.8 1144.94 3377.11 1085.9 3391.1C1025.82 3400.3 965.409 3407.07 904.668 3411.41C843.638 3410.84 782.651 3407.81 721.709 3402.31C661.233 3391.9 601.178 3379.04 541.545 3363.74C483.13 3343.64 425.507 3321.19 368.676 3296.39C313.791 3267.01 260.053 3235.42 207.463 3201.64C157.504 3163.62 109.022 3123.61 62.0163 3081.59C18.2697 3035.81 -23.7043 2988.28 -63.9056 2939C-100.296 2886.51 -134.659 2832.57 -166.995 2777.18C-195.058 2719.23 -220.888 2660.16 -244.483 2599.98C-263.445 2537.95 -280.021 2475.18 -294.21 2411.66C-303.517 2347.05 -310.343 2282.09 -314.688 2216.79C-314.02 2151.18 -310.838 2085.63 -305.14 2020.13C-294.425 1955.15 -281.222 1890.63 -265.533 1826.57C-244.944 1763.83 -221.959 1701.95 -196.576 1640.92C-166.536 1582 -134.25 1524.32 -99.7172 1467.87C-60.8863 1414.27 -20.0171 1362.25 22.8906 1311.83C69.6272 1264.91 118.142 1219.91 168.435 1176.81C221.988 1137.81 277.012 1100.99 333.508 1066.35C392.609 1036.31 452.836 1008.66 514.188 983.417C577.42 963.149 641.4 945.444 706.129 930.302C771.959 920.401 838.139 913.163 904.668 908.587C971.487 909.389 1038.24 912.888 1104.94 919.085C1171.1 930.662 1236.78 944.905 1301.99 961.814C1365.84 983.973 1428.81 1008.7 1490.9 1035.99C1550.84 1068.28 1609.51 1102.96 1666.92 1140.05C1721.43 1181.75 1774.31 1225.62 1825.57 1271.67C1873.25 1321.82 1918.98 1373.87 1962.77 1427.82C2002.38 1485.25 2039.77 1544.26 2074.93 1604.83C2105.42 1668.18 2133.47 1732.74 2159.07 1798.49C2179.6 1866.25 2197.53 1934.8 2212.85 2004.14C2222.84 2074.66 2230.12 2145.54 2234.69 2216.79C2233.79 2288.33 2230.16 2359.81 2223.78 2431.21C2211.93 2502.02 2197.38 2572.32 2180.12 2642.1C2157.52 2710.42 2132.32 2777.79 2104.51 2844.21C2071.64 2908.32 2036.33 2971.07 1998.58 3032.46C1956.17 3090.73 1911.54 3147.27 1864.7 3202.05C1813.71 3253 1760.79 3301.87 1705.95 3348.65C1647.58 3390.95 1587.62 3430.87 1526.07 3468.42C1461.71 3500.95 1396.13 3530.87 1329.35 3558.17C1260.54 3580.05 1190.93 3599.14 1120.52 3615.45C1048.94 3626.05 976.986 3633.75 904.668 3638.56C832.061 3637.52 759.534 3633.56 687.086 3626.66C615.246 3613.93 543.935 3598.3 473.151 3579.77C403.866 3555.56 335.547 3528.56 268.196 3498.77C203.202 3463.59 139.593 3425.8 77.3695 3385.4C18.312 3340.03 -38.9734 3292.3 -94.4864 3242.21C-146.097 3187.7 -195.59 3131.13 -242.964 3072.51C-285.791 3010.13 -326.203 2946.07 -364.2 2880.3C-397.113 2811.55 -427.373 2741.51 -454.979 2670.18C-477.086 2596.7 -496.364 2522.37 -512.813 2447.2C-523.482 2370.78 -531.216 2293.98 -536.016 2216.79C-534.894 2139.3 -530.803 2061.91 -523.744 1984.6C-510.768 1907.96 -494.863 1831.88 -476.028 1756.38C-451.43 1682.48 -424.014 1609.62 -393.781 1537.8C-358.08 1468.5 -319.745 1400.69 -278.775 1334.36C-232.772 1271.42 -184.384 1210.37 -133.612 1151.21C-78.3678 1096.22 -21.0499 1043.5 38.3415 993.042C101.528 947.438 166.423 904.411 233.027 863.962C302.65 828.939 373.572 796.748 445.793 767.387C520.176 743.892 595.414 723.414 671.505 705.952C748.841 694.653 826.562 686.483 904.668 681.44C983.063 682.709 1061.36 687.14 1139.56 694.734C1217.08 708.631 1294.02 725.648 1370.38 745.784C1445.1 772.059 1518.77 801.332 1591.38 833.604C1661.43 871.696 1729.97 912.591 1797.01 956.289C1860.62 1005.34 1922.31 1056.93 1982.07 1111.06C2037.62 1169.94 2090.87 1231.02 2141.83 1294.31C2187.87 1361.62 2231.31 1430.76 2272.14 1501.71C2307.48 1575.86 2339.95 1651.39 2369.56 1728.3C2393.24 1807.5 2413.87 1887.6 2431.45 1968.61C2442.8 2050.93 2450.99 2133.66 2456.02 2216.79C2454.67 2300.21 2450.12 2383.53 2442.38 2466.74C2428.28 2549.21 2411.02 2631.06 2390.61 2712.29C2364.01 2791.77 2334.38 2870.11 2301.72 2947.33C2263.19 3021.82 2221.83 3094.7 2177.64 3165.97C2128.05 3233.58 2075.9 3299.15 2021.2 3362.67C1961.7 3421.69 1899.98 3478.27 1836.04 3532.41C1768.04 3581.32 1698.21 3627.45 1626.55 3670.81C1551.67 3708.32 1475.4 3742.78 1397.74 3774.2C1317.78 3799.31 1236.92 3821.17 1155.14 3839.8C1072.05 3851.79 988.562 3860.43 904.668 3865.71C820.484 3864.2 736.416 3859.31 652.462 3851.01C569.26 3835.96 486.691 3817.55 404.757 3795.8C324.602 3767.47 245.588 3735.93 167.715 3701.16C92.6124 3660.17 19.1329 3616.17 -52.724 3569.17C-120.88 3516.43 -186.968 3460.99 -250.989 3402.83C-310.464 3339.58 -367.475 3273.98 -422.022 3206.02C-471.286 3133.76 -517.747 3059.56 -561.405 2983.43C-599.169 2903.88 -633.859 2822.86 -665.474 2740.37C-690.726 2655.45 -712.707 2569.57 -731.417 2482.73C-743.447 2394.5 -752.089 2305.86 -757.344 2216.79C-755.767 2127.42 -750.768 2038.18 -742.347 1949.07C-727.111 1860.76 -708.503 1773.13 -686.524 1686.18C-657.915 1601.13 -626.069 1517.3 -590.986 1434.68C-549.623 1355.01 -505.239 1277.06 -457.834 1200.85C-404.657 1128.56 -348.751 1058.48 -290.115 990.593C-226.363 927.536 -160.242 867.097 -91.752 809.276C-18.9325 757.066 55.8336 707.832 132.546 661.573C212.691 621.572 294.308 584.834 377.399 551.358C462.933 524.635 549.427 501.383 636.882 481.602C725.723 468.906 814.985 459.803 904.668 454.294C994.64 456.029 1084.48 461.392 1174.19 470.384C1263.07 486.601 1351.27 506.391 1438.78 529.755C1524.37 560.145 1608.73 593.965 1691.86 631.215C1772.02 675.117 1850.43 722.22 1927.11 772.523C1999.81 828.938 2070.3 888.243 2138.58 950.439C2201.98 1018.05 2262.75 1088.17 2320.89 1160.79C2373.37 1238 2422.85 1317.26 2469.34 1398.59C2509.53 1483.54 2546.44 1570.04 2580.06 1658.11C2606.88 1748.75 2630.21 1840.41 2650.05 1933.08C2662.77 2027.21 2671.86 2121.78 2677.34 2216.79C2675.54 2312.09 2670.09 2407.26 2660.98 2502.27C2644.62 2596.41 2624.66 2689.81 2601.11 2782.48C2570.49 2873.11 2536.43 2962.44 2498.92 3050.46C2454.73 3135.31 2407.32 3218.32 2356.7 3299.48C2299.94 3376.43 2240.27 3451.04 2177.7 3523.29C2109.7 3590.38 2039.17 3654.68 1966.13 3716.18C1888.5 3771.69 1808.8 3824.03 1727.03 3873.19C1641.63 3915.68 1554.66 3954.7 1466.13 3990.23C1375.02 4018.57 1282.9 4043.21 1189.77 4064.15C1095.17 4077.54 1000.14 4087.11 904.668 4092.85C808.907 4090.88 713.298 4085.05 617.839 4075.36C523.273 4057.99 429.448 4036.81 336.363 4011.83C245.338 3979.39 155.629 3943.29 67.2337 3903.55C-17.9769 3856.75 -101.327 3806.54 -182.817 3752.93C-260.072 3692.84 -334.963 3629.67 -407.492 3563.44C-474.831 3491.47 -539.361 3416.83 -601.08 3339.54C-656.781 3257.39 -709.29 3173.06 -758.61 3086.55C-801.224 2996.2 -840.344 2904.2 -875.97 2810.56C-904.366 2714.2 -929.05 2616.76 -950.02 2518.26C-963.412 2418.23 -972.963 2317.74 -978.672 2216.79C-976.64 2115.54 -970.733 2014.45 -960.95 1913.53C-943.454 1813.57 -922.143 1714.39 -897.019 1615.99C-864.401 1519.79 -828.124 1424.97 -788.19 1331.56C-741.167 1241.51 -690.734 1153.44 -636.892 1067.33C-576.543 985.713 -513.118 906.594 -446.617 829.976C-374.358 758.848 -299.434 690.693 -221.845 625.511C-139.393 566.695 -54.7557 511.252 32.0656 459.184C122.731 414.205 215.044 372.92 309.005 335.328C405.689 305.378 503.441 279.353 602.258 257.251C702.605 243.158 803.408 233.123 904.668 227.147C1006.22 229.349 1107.6 235.644 1208.81 246.034C1309.06 264.57 1408.51 287.134 1507.17 313.725C1603.63 348.231 1698.69 386.597 1792.34 428.825C1882.61 478.537 1970.89 531.848 2057.2 588.758C2139 652.533 2218.3 719.555 2295.08 789.822C2366.35 866.164 2434.64 945.316 2499.95 1027.28C2558.86 1114.37 2614.4 1203.77 2666.55 1295.46C2711.59 1391.21 2752.92 1488.7 2790.55 1587.92C2820.52 1690 2846.56 1793.21 2868.66 1897.54C2882.73 2003.48 2892.74 2109.89 2898.67 2216.79C2896.41 2323.98 2890.05 2430.98 2879.59 2537.81C2860.96 2643.6 2838.3 2748.56 2811.6 2852.68C2776.98 2954.46 2738.49 3054.76 2696.13 3153.58C2646.28 3248.81 2592.82 3341.95 2535.76 3433C2471.82 3519.29 2404.64 3602.92 2334.2 3683.91C2257.69 3759.07 2178.37 3831.08 2096.23 3899.95C2008.96 3962.06 1919.39 4020.61 1827.51 4075.58C1731.58 4123.05 1633.92 4166.61 1534.53 4206.26C1432.27 4237.82 1328.89 4265.24 1224.39 4288.5C1118.29 4303.29 1011.72 4313.79 904.668 4320C797.331 4317.56 690.18 4310.8 583.216 4299.71C477.287 4280.02 372.205 4256.07 267.969 4227.86C166.075 4191.3 65.6692 4150.66 -33.2471 4105.94C-128.566 4053.33 -221.787 3996.91 -312.911 3936.7C-399.264 3869.24 -482.958 3798.36 -563.994 3724.06C-639.198 3643.35 -711.246 3559.68 -780.138 3473.05C-842.275 3381.02 -900.834 3286.56 -955.814 3189.67C-1003.28 3088.52 -1046.83 2985.55 -1086.47 2880.75C-1118.01 2772.94 -1145.39 2663.96 -1168.62 2553.8C-1183.38 2441.96 -1193.84 2329.62 -1200 2216.79C-1197.51 2103.66 -1190.7 1990.73 -1179.55 1878C-1159.8 1766.37 -1135.78 1655.64 -1107.51 1545.8C-1070.89 1438.44 -1030.18 1332.65 -985.395 1228.43C-932.711 1128.01 -876.229 1029.81 -815.95 933.819C-748.428 842.862 -677.485 754.708 -603.12 669.359C-522.353 590.16 -438.625 514.289 -351.939 441.745C-259.853 376.323 -165.345 314.673 -68.4153 256.795C32.7719 206.837 135.781 161.006 240.611 119.299C348.446 86.1214 457.454 57.3221 567.635 32.9011C679.487 17.4098 791.832 6.4428 904.668 0C1017.79 2.66869 1130.72 9.89649 1243.43 21.6835C1355.04 42.5394 1465.75 67.8768 1575.56 97.6958C1682.89 136.317 1788.65 179.23 1892.82 226.436C1993.2 281.958 2091.35 341.477 2187.29 404.992C2278.2 476.129 2366.29 550.866 2451.58 629.205C2530.72 714.278 2606.53 802.465 2679 893.765C2744.36 990.744 2805.94 1090.27 2863.75 1192.34C2913.64 1298.89 2959.41 1407.35 3001.05 1517.72C3034.16 1631.25 3062.9 1746.02 3087.26 1862.01C3102.7 1979.75 3113.61 2098.01 3120 2216.79" stroke="#4D4D4D" stroke-opacity="0.3" stroke-width="5"/>
</svg>
